<svg xmlns="http://www.w3.org/2000/svg"
 xmlns:xlink="http://www.w3.org/1999/xlink"
 width="35px" height="35px"  viewBox="0 0 35 35">
<path fill-rule="evenodd"  fill="#000000"
 d="M27.758057,7.2424927 C22.102173,1.5866089 12.89917,1.586319 7.242798,7.2424927 C1.5863037,12.898651 1.5869141,22.101257 7.242798,27.757416 C12.89856,33.41391 22.101685,33.41391 27.758057,27.757416 C33.41394,22.101257 33.41394,12.898071 27.758057,7.2424927 ZM23.220825,23.220581 C22.785156,23.656189 22.078857,23.656189 21.643066,23.220581 C21.643066,23.220581 17.500488,19.077942 17.500488,19.077942 C17.500488,19.077942 13.160767,23.417542 13.160767,23.417542 C12.725098,23.85318 12.018555,23.85318 11.582886,23.417542 C11.147095,22.981628 11.147095,22.27533 11.582886,21.839691 C11.582886,21.839691 15.922485,17.500092 15.922485,17.500092 C15.922485,17.500092 11.779907,13.357483 11.779907,13.357483 C11.344116,12.92157 11.344116,12.214691 11.779907,11.779633 C12.215576,11.3437195 12.921997,11.3437195 13.357666,11.779633 C13.357666,11.779633 17.500488,15.922272 17.500488,15.922272 C17.500488,15.922272 21.445557,11.977203 21.445557,11.977203 C21.881348,11.54129 22.587646,11.54129 23.023438,11.977203 C23.459106,12.412842 23.459106,13.11911 23.023438,13.554749 C23.023438,13.554749 19.078247,17.500092 19.078247,17.500092 C19.078247,17.500092 23.220825,21.642426 23.220825,21.642426 C23.656616,22.07837 23.656616,22.784637 23.220825,23.220581 Z"/>
</svg>