<svg xmlns="http://www.w3.org/2000/svg" width="47" height="47" viewBox="0 0 47 47"><g><g><path fill="#bb8e62" d="M23.361 0C36.263 0 46.723 10.52 46.723 23.5S36.263 47 23.36 47C10.46 47 0 36.479 0 23.5S10.46 0 23.36 0z"/></g><g><path fill="#fff" d="M32.995 19.512v8.96c0 3.043-2.35 5.518-5.24 5.518h-8.507c-2.89 0-5.24-2.475-5.24-5.518v-8.96c0-3.042 2.35-5.518 5.24-5.518h8.507c2.89 0 5.24 2.476 5.24 5.518zm-1.685 8.96v-8.96c0-2.064-1.594-3.744-3.555-3.744h-8.507c-1.96 0-3.555 1.68-3.555 3.744v8.96c0 2.065 1.595 3.744 3.555 3.744h8.507c1.96 0 3.556-1.68 3.556-3.744zm-2.916-4.48c0 2.841-2.195 5.153-4.892 5.153-2.698 0-4.893-2.312-4.893-5.153 0-2.84 2.195-5.152 4.893-5.152 2.697 0 4.892 2.311 4.892 5.152zm-1.684 0c0-1.863-1.44-3.378-3.208-3.378-1.77 0-3.208 1.515-3.208 3.378 0 1.863 1.439 3.379 3.208 3.379 1.768 0 3.208-1.516 3.208-3.379zm2.763-6.275c.23.24.362.577.362.92 0 .341-.132.677-.362.92-.23.241-.548.38-.874.38-.324 0-.643-.139-.872-.38a1.348 1.348 0 0 1 0-1.84 1.21 1.21 0 0 1 .872-.382c.326 0 .645.139.874.382z"/></g></g></svg>