<svg xmlns="http://www.w3.org/2000/svg" width="47" height="47" viewBox="0 0 47 47"><defs><clipPath id="vt10a"><path fill="#fff" d="M23.394 0C36.296 0 46.755 10.52 46.755 23.5S36.296 47 23.395 47C10.491 47 .032 36.479.032 23.5S10.492 0 23.394 0z"/></clipPath></defs><g><g><path fill="#333" d="M23.394 0C36.296 0 46.755 10.52 46.755 23.5S36.296 47 23.395 47C10.491 47 .032 36.479.032 23.5S10.492 0 23.394 0z"/><path fill="none" stroke="#fff" stroke-miterlimit="20" stroke-width="2" d="M23.394 0C36.296 0 46.755 10.52 46.755 23.5S36.296 47 23.395 47C10.491 47 .032 36.479.032 23.5S10.492 0 23.394 0z" clip-path="url(&quot;#vt10a&quot;)"/></g><g><path fill="#fff" d="M27.333 16.113l-1.948-.004c-2.188 0-3.602 1.524-3.602 3.881v1.79h-1.958a.314.314 0 0 0-.306.321v2.592c0 .178.137.322.306.322h1.958v6.542c0 .177.137.321.306.321h2.555c.17 0 .307-.144.307-.321v-6.542h2.29c.168 0 .305-.144.305-.322l.001-2.592a.33.33 0 0 0-.09-.227.3.3 0 0 0-.216-.095h-2.29v-1.517c0-.728.165-1.099 1.07-1.099h1.312a.314.314 0 0 0 .306-.322v-2.407a.314.314 0 0 0-.306-.321z"/></g></g></svg>