<svg xmlns="http://www.w3.org/2000/svg" width="47" height="47" viewBox="0 0 47 47"><g><g><path fill="#bb8e62" d="M23.639 0c12.902 0 23.36 10.521 23.36 23.5S36.542 47 23.64 47 .277 36.479.277 23.5 10.737 0 23.64 0z"/></g><g><path fill="#fff" d="M32.902 27.833a1.352 1.352 0 0 0-.061-.127c-.316-.61-.918-1.358-1.807-2.245l-.02-.02-.009-.01-.01-.01h-.009c-.403-.414-.659-.691-.766-.834-.196-.27-.24-.545-.133-.822.076-.21.36-.654.852-1.33.259-.36.464-.647.615-.864 1.091-1.557 1.564-2.553 1.419-2.986l-.056-.101c-.038-.061-.136-.117-.294-.168-.157-.05-.36-.06-.605-.026l-2.725.02c-.044-.016-.107-.014-.19.006l-.122.03-.048.026-.037.03a.43.43 0 0 0-.104.107.714.714 0 0 0-.095.178 17.15 17.15 0 0 1-1.012 2.285c-.233.42-.448.784-.644 1.092-.195.308-.359.535-.491.68a3.522 3.522 0 0 1-.36.35c-.107.089-.189.126-.246.113a7.674 7.674 0 0 1-.16-.041.66.66 0 0 1-.214-.25 1.172 1.172 0 0 1-.108-.395 4.666 4.666 0 0 1-.034-.412 9.435 9.435 0 0 1 .005-.487c.007-.21.01-.352.01-.427 0-.257.004-.536.014-.838.01-.301.017-.54.024-.716.006-.176.009-.362.009-.558 0-.197-.011-.35-.033-.463a1.66 1.66 0 0 0-.1-.325.538.538 0 0 0-.193-.243 1.048 1.048 0 0 0-.317-.137c-.334-.082-.76-.126-1.277-.132-1.174-.014-1.927.067-2.262.243a1.294 1.294 0 0 0-.359.305c-.114.149-.13.23-.047.244.378.06.646.206.804.436l.056.122c.045.088.089.244.133.468.044.223.073.47.085.741.032.494.032.917 0 1.27-.031.352-.061.626-.09.822a1.745 1.745 0 0 1-.241.701.163.163 0 0 1-.047.05.665.665 0 0 1-.256.052c-.088 0-.195-.048-.321-.143a2.34 2.34 0 0 1-.393-.39 5.225 5.225 0 0 1-.459-.696 12.43 12.43 0 0 1-.53-1.057l-.151-.294c-.095-.19-.224-.466-.388-.828a16.66 16.66 0 0 1-.435-1.051.666.666 0 0 0-.227-.325l-.047-.03a.955.955 0 0 0-.369-.152l-2.593.02c-.265 0-.444.063-.539.192l-.038.061a.348.348 0 0 0-.028.163.86.86 0 0 0 .057.274c.378.954.79 1.875 1.234 2.762.445.887.831 1.602 1.159 2.143.328.542.662 1.053 1.003 1.534.34.48.566.789.676.924.11.136.197.237.26.305l.237.244c.151.162.374.357.667.584.293.227.618.45.974.67.357.22.772.4 1.245.538.473.14.933.195 1.38.168h1.089c.22-.02.388-.095.501-.223l.038-.051a.705.705 0 0 0 .07-.188c.023-.085.034-.178.034-.28a3.58 3.58 0 0 1 .061-.786c.047-.234.101-.41.161-.528a1.295 1.295 0 0 1 .365-.447.577.577 0 0 1 .075-.036c.152-.054.33-.001.535.158.205.159.397.356.577.589.18.234.396.496.648.787.252.291.473.508.662.65l.19.122c.126.081.29.156.492.223a.988.988 0 0 0 .53.051l2.421-.04c.24 0 .426-.043.558-.127.133-.085.211-.178.237-.28a.844.844 0 0 0 .005-.345 1.342 1.342 0 0 0-.067-.27z"/></g></g></svg>