<svg xmlns="http://www.w3.org/2000/svg" width="19" height="20" viewBox="0 0 19 20"><g><g><path fill="#fff" d="M18.995 5.512v8.96c0 3.043-2.35 5.518-5.24 5.518H5.248c-2.89 0-5.24-2.475-5.24-5.518v-8.96c0-3.042 2.35-5.518 5.24-5.518h8.507c2.89 0 5.24 2.476 5.24 5.518zm-1.684 8.96v-8.96c0-2.064-1.595-3.744-3.556-3.744H5.248c-1.96 0-3.555 1.68-3.555 3.744v8.96c0 2.065 1.595 3.744 3.555 3.744h8.507c1.96 0 3.556-1.68 3.556-3.744zm-2.917-4.48c0 2.841-2.195 5.153-4.892 5.153-2.698 0-4.893-2.312-4.893-5.153 0-2.84 2.195-5.152 4.893-5.152 2.697 0 4.892 2.311 4.892 5.152zm-1.684 0c0-1.862-1.44-3.378-3.208-3.378-1.77 0-3.208 1.516-3.208 3.378 0 1.863 1.439 3.378 3.208 3.378 1.768 0 3.208-1.515 3.208-3.378zm2.763-6.276a1.348 1.348 0 0 1 0 1.84c-.23.242-.548.382-.874.382-.324 0-.643-.14-.872-.381a1.348 1.348 0 0 1 0-1.84c.229-.243.548-.381.872-.381.326 0 .645.138.874.38z"/></g></g></svg>