<svg xmlns="http://www.w3.org/2000/svg"
 xmlns:xlink="http://www.w3.org/1999/xlink"
 width="21px" height="23px"  viewBox="0 0 21 23">
<path fill-rule="evenodd"  fill="#ffffff"
 d="M14.75528,1.9941406 C14.75528,1.9941406 6.247864,1.9941406 6.247864,1.9941406 C3.3587952,1.9941406 1.0083008,4.4697266 1.0083008,7.512207 C1.0083008,7.512207 1.0083008,16.472168 1.0083008,16.472168 C1.0083008,19.515137 3.3587952,21.990234 6.247864,21.990234 C6.247864,21.990234 14.75528,21.990234 14.75528,21.990234 C17.644592,21.990234 19.995087,19.514893 19.995087,16.472168 C19.995087,16.472168 19.995087,7.512207 19.995087,7.512207 C19.995178,4.4697266 17.644592,1.9941406 14.75528,1.9941406 ZM18.310608,16.472168 C18.310608,18.536621 16.715668,20.216309 14.755402,20.216309 C14.755402,20.216309 6.247864,20.216309 6.247864,20.216309 C4.2875977,20.216309 2.692871,18.536621 2.692871,16.472168 C2.692871,16.472168 2.692871,7.512207 2.692871,7.512207 C2.692871,5.447998 4.2875977,3.7683105 6.247864,3.7683105 C6.247864,3.7683105 14.75528,3.7683105 14.75528,3.7683105 C16.715546,3.7683105 18.310516,5.447998 18.310516,7.512207 C18.310516,7.512207 18.310516,16.472168 18.310516,16.472168 C18.310516,16.472168 18.310608,16.472168 18.310608,16.472168 ZM10.501648,6.840088 C7.804016,6.840088 5.6092834,9.151123 5.6092834,11.992432 C5.6092834,14.833496 7.804016,17.14502 10.501648,17.14502 C13.199341,17.14502 15.394104,14.833496 15.394104,11.992432 C15.394104,9.151123 13.199341,6.840088 10.501648,6.840088 ZM10.501648,15.370361 C8.732941,15.370361 7.2938538,13.85498 7.2938538,11.992432 C7.2938538,10.129639 8.732849,8.614014 10.501648,8.614014 C12.270538,8.614014 13.709534,10.129639 13.709534,11.992432 C13.709534,13.85498 12.270447,15.370361 10.501648,15.370361 ZM15.599304,5.3356934 C15.274719,5.3356934 14.955902,5.473877 14.726685,5.7163086 C14.496307,5.9575195 14.363892,6.293701 14.363892,6.6367188 C14.363892,6.9785156 14.496429,7.314453 14.726685,7.556885 C14.95578,7.7980957 15.274719,7.937744 15.599304,7.937744 C15.924988,7.937744 16.242798,7.7980957 16.473053,7.556885 C16.703308,7.314453 16.834686,6.9782715 16.834686,6.6367188 C16.834686,6.293701 16.703308,5.9575195 16.473053,5.7163086 C16.243927,5.473877 15.924988,5.3356934 15.599304,5.3356934 Z"/>
</svg>