<svg xmlns="http://www.w3.org/2000/svg" width="19" height="12" viewBox="0 0 19 12"><g><g><path fill="#fff" d="M18.902 10.833a1.38 1.38 0 0 0-.061-.127c-.316-.61-.918-1.358-1.807-2.245l-.02-.02-.009-.01-.01-.01h-.009c-.403-.414-.659-.691-.766-.833-.196-.271-.24-.546-.133-.823.076-.21.36-.653.852-1.33.259-.36.463-.647.615-.864 1.091-1.558 1.564-2.553 1.419-2.986l-.056-.102c-.038-.06-.136-.116-.294-.167-.157-.051-.36-.06-.605-.025l-2.725.02a.331.331 0 0 0-.19.005l-.122.03-.048.026-.037.03a.435.435 0 0 0-.104.107.714.714 0 0 0-.095.178 17.13 17.13 0 0 1-1.012 2.285c-.233.42-.448.784-.643 1.092a5.24 5.24 0 0 1-.492.68 3.567 3.567 0 0 1-.36.35c-.107.089-.19.126-.246.112a6.09 6.09 0 0 1-.16-.04.66.66 0 0 1-.214-.25 1.176 1.176 0 0 1-.108-.395 4.67 4.67 0 0 1-.034-.412 9.177 9.177 0 0 1 .005-.487c.007-.21.01-.352.01-.427 0-.257.004-.536.014-.838.01-.301.017-.54.024-.716.006-.176.009-.362.009-.558 0-.197-.011-.35-.033-.463a1.662 1.662 0 0 0-.1-.324.538.538 0 0 0-.193-.244 1.055 1.055 0 0 0-.317-.138c-.334-.08-.76-.125-1.278-.132C8.396.77 7.643.85 7.31 1.026a1.291 1.291 0 0 0-.36.305c-.114.149-.13.23-.047.244.378.06.646.206.804.437l.056.121c.045.088.089.244.133.468.044.223.073.47.085.74.032.495.032.919 0 1.27-.031.353-.061.627-.09.823a1.735 1.735 0 0 1-.241.701.172.172 0 0 1-.047.05.665.665 0 0 1-.256.052c-.088 0-.195-.048-.321-.142a2.336 2.336 0 0 1-.393-.392 5.249 5.249 0 0 1-.459-.695 12.55 12.55 0 0 1-.53-1.057l-.151-.294c-.095-.19-.224-.466-.388-.828-.164-.362-.309-.713-.435-1.051a.667.667 0 0 0-.227-.325l-.047-.031a.644.644 0 0 0-.152-.086.967.967 0 0 0-.217-.066l-2.593.02c-.265 0-.444.065-.539.193l-.038.061a.35.35 0 0 0-.028.162.86.86 0 0 0 .057.275c.378.955.79 1.875 1.234 2.763a31.68 31.68 0 0 0 1.159 2.142c.328.542.662 1.053 1.003 1.534.34.48.566.789.676.924.11.136.197.237.26.305l.237.244a5.7 5.7 0 0 0 .667.584c.293.227.618.45.974.67.357.22.771.4 1.245.539.473.138.933.194 1.38.167h1.089c.22-.02.388-.095.501-.223l.038-.051a.698.698 0 0 0 .07-.188c.023-.084.034-.178.034-.28a3.594 3.594 0 0 1 .061-.786c.048-.234.101-.41.161-.528a1.301 1.301 0 0 1 .365-.447.54.54 0 0 1 .075-.036c.152-.054.33-.002.535.158.205.159.397.355.577.589.18.234.396.496.648.787.253.291.473.508.662.65l.19.122c.126.081.29.156.492.223a.988.988 0 0 0 .53.051l2.421-.04c.24 0 .426-.043.558-.127.133-.085.211-.178.237-.28a.844.844 0 0 0 .005-.345 1.352 1.352 0 0 0-.067-.27z"/></g></g></svg>